<svg xmlns="http://www.w3.org/2000/svg" xml:space="preserve" viewBox="0 0 32 32" height="28" width="28">
  <path
    d="M16 29.343C17.786 27.79 26.5 19.809 26.5 12c0-5.79-4.71-10.5-10.5-10.5S5.5 6.21 5.5 12c0 7.809 8.714 15.79 10.5 17.343z"
    style="fill: #cc4121"
  />
  <circle cx="16" cy="12" r="5.5" style="fill: #fffaee" />
  <path
    d="M16 1C9.925 1 5 5.925 5 12c0 9 11 18 11 18s11-9 11-18c0-6.075-4.925-11-11-11zm0 27.677C13.71 26.629 6 19.202 6 12 6 6.486 10.486 2 16 2s10 4.486 10 10c0 7.202-7.71 14.629-10 16.677zM16 6a6 6 0 1 0 0 12 6 6 0 0 0 0-12zm0 11c-2.757 0-5-2.243-5-5s2.243-5 5-5 5 2.243 5 5-2.243 5-5 5z"
    style="fill: #231f20"
  />
</svg>